<svg id="Layer_1" data-name="Layer 1" xmlns="http://www.w3.org/2000/svg" xmlns:xlink="http://www.w3.org/1999/xlink" viewBox="0 0 512 512"><defs><radialGradient id="radial-gradient" cx="787.48" cy="450.77" r="342.44" gradientTransform="translate(-1315.97 -960.3) scale(1.98 1.98)" gradientUnits="userSpaceOnUse"><stop offset="0" stop-color="#cce3ee"/><stop offset="0.02" stop-color="#b0d9ea"/><stop offset="0.07" stop-color="#7bc6e3"/><stop offset="0.12" stop-color="#4fb6dd"/><stop offset="0.17" stop-color="#2da9d9"/><stop offset="0.22" stop-color="#14a0d6"/><stop offset="0.26" stop-color="#059bd4"/><stop offset="0.29" stop-color="#0099d3"/><stop offset="0.65" stop-color="#006e98"/><stop offset="0.89" stop-color="#0e3e6c"/><stop offset="1" stop-color="#152757"/></radialGradient></defs><title>facebook-other</title><path d="M255.93,2.74C116.18,2.74,3,116.15,3,256s113.2,253.26,253,253.26S509,396,509,256,395.68,2.74,255.93,2.74Zm73,136.51a130.39,130.39,0,0,0-29.33-3.62c-9.31,0-15.84,2.23-19.81,6.68-4.17,4.17-6,12.52-6,24.77v17h47.74v50.37H273.72V425.49H209.86V234.43H174.35V184.06h35.51V166c0-20.46,2.22-35.62,6.39-45.5,4.38-10.16,12.3-18,24-24.35,11.47-6.4,26.13-9.46,44-9.46a178.49,178.49,0,0,1,53.3,8.07Z" fill="url(#radial-gradient)"/><path d="M257.91,4.72C118.15,4.72,5,118.13,5,258s113.2,253.26,253,253.26S511,398,511,258,397.66,4.72,257.91,4.72Zm73,136.51a130.39,130.39,0,0,0-29.33-3.62c-9.31,0-15.84,2.23-19.81,6.68-4.17,4.17-6,12.52-6,24.77v17h47.74v50.37H275.7V427.47H211.83V236.41H176.32V186h35.51V167.94c0-20.46,2.22-35.62,6.39-45.5,4.38-10.16,12.3-18,24-24.35,11.47-6.4,26.13-9.46,44-9.46a178.49,178.49,0,0,1,53.3,8.07Z" fill="none" stroke="#0f2975" stroke-width="2"/><path d="M254,.76C114.2.76,1,114.17,1,254S114.2,507.28,254,507.28,507,394,507,254,393.71.76,254,.76Zm73,136.51a130.39,130.39,0,0,0-29.33-3.62c-9.31,0-15.84,2.23-19.81,6.68-4.17,4.17-6,12.52-6,24.77v17h47.74v50.37H271.75V423.51H207.88V232.45H172.37V182.08h35.51V164c0-20.46,2.22-35.62,6.39-45.5,4.38-10.16,12.3-18,24-24.35,11.47-6.4,26.13-9.46,44-9.46a178.49,178.49,0,0,1,53.3,8.07Z" fill="none" stroke="#cad8e9" stroke-width="2"/><path d="M255.93,2.74C116.18,2.74,3,116.15,3,256s113.2,253.26,253,253.26S509,396,509,256,395.68,2.74,255.93,2.74Zm73,136.51a130.39,130.39,0,0,0-29.33-3.62c-9.31,0-15.84,2.23-19.81,6.68-4.17,4.17-6,12.52-6,24.77v17h47.74v50.37H273.72V425.49H209.86V234.43H174.35V184.06h35.51V166c0-20.46,2.22-35.62,6.39-45.5,4.38-10.16,12.3-18,24-24.35,11.47-6.4,26.13-9.46,44-9.46a178.49,178.49,0,0,1,53.3,8.07Z" fill="none" stroke="#8daed4" stroke-width="2"/></svg>